<?xml version="1.0" encoding="utf-8"?>
<!-- Generator: Adobe Illustrator 28.3.0, SVG Export Plug-In . SVG Version: 6.00 Build 0)  -->
<svg version="1.1" id="Layer_1" xmlns="http://www.w3.org/2000/svg" xmlns:xlink="http://www.w3.org/1999/xlink" x="0px" y="0px"
	 viewBox="0 0 68 103.4" style="enable-background:new 0 0 68 103.4;" xml:space="preserve">
<style type="text/css">
	.st0{fill:#FFFFFF;}
	.st1{fill:none;stroke:#000000;stroke-width:4.6017;stroke-miterlimit:10;}
</style>
<g id="XMLID_00000145777508402056660520000015059449269841965741_">
	<g>
		<path class="st0" d="M63.8,68.8c2.5,9.1-3,16.9-12.1,19.3l-19,5.4L9.3,71.1l0-0.1l1.6-5.9c3.1-11.5,9.1-21.9,17.5-30.3L60,3.3
			c6.7,6.7,6.7,17.5,0,24.2L36.8,50.6c-1.4,1.4,0.3,3.6,2,2.7l24.6-14.2c4.7,8.2,1.9,18.7-6.3,23.4l-12.1,7c-1.6,0.9-0.7,3.4,1.2,3
			L63.8,68.8z"/>
		<path class="st0" d="M32.8,93.5L18,97.7c-0.2,0.1-0.5,0.2-0.7,0.3c-3.9,2.3-6.9,3.1-9.6,3.1c-2.6,0-5.5-0.3-5.4-2.4l0.3-1.2
			c0,0,0,0,0,0L9.3,71l0,0l0,0.1L32.8,93.5z"/>
	</g>
	<g>
		<path class="st1" d="M9.3,71.1L9.3,71.1l1.6-6c3.1-11.5,9.1-21.9,17.5-30.3L60,3.3c6.7,6.7,6.7,17.5,0,24.2L36.8,50.6
			c-1.4,1.4,0.3,3.6,2,2.7l24.6-14.2c4.7,8.2,1.9,18.7-6.3,23.4l-12.1,7c-1.6,0.9-0.7,3.4,1.2,3l17.6-3.7c2.5,9.1-3,16.9-12.1,19.3
			l-19,5.4"/>
		<line class="st1" x1="2.7" y1="97.5" x2="9.3" y2="71"/>
		<polyline class="st1" points="2.2,99.3 2.4,98.7 2.7,97.6 		"/>
		<path class="st1" d="M32.8,93.5L18,97.7c-0.2,0.1-0.5,0.2-0.7,0.3c-3.9,2.3-6.9,3.1-9.6,3.1c-2.6,0-5.5-0.3-5.4-2.4
			c0-0.3,0.1-0.7,0.3-1.2c0,0,0,0,0,0"/>
	</g>
</g>
</svg>
