<?xml version="1.0" encoding="utf-8"?>
<!-- Generator: Adobe Illustrator 28.3.0, SVG Export Plug-In . SVG Version: 6.00 Build 0)  -->
<svg version="1.1" id="Layer_1" xmlns="http://www.w3.org/2000/svg" xmlns:xlink="http://www.w3.org/1999/xlink" x="0px" y="0px"
	 viewBox="0 0 116.8 120.7" style="enable-background:new 0 0 116.8 120.7;" xml:space="preserve">
<style type="text/css">
	.st0{fill:#EFE77F;stroke:#000000;stroke-width:4.6017;stroke-miterlimit:10;}
	.st1{fill:#EDE6A1;stroke:#000000;stroke-width:4.6017;stroke-miterlimit:10;}
</style>
<g>
	<path class="st0" d="M18.8,106.2C-27.3,65.3,32.4-17.8,87,6.8c28.6,17.4,36.4,64.2,16.1,90.6C83.6,118.4,40.9,127.6,18.8,106.2z"/>
	<g>
		<g>
			<path class="st1" d="M86.7,64.1c-2.8-2.7-6.1-4.6-10-5.9c-3-1-6.8-1.9-11.3-2.9l0-20.9c8.6,1,13.3,4.9,14.1,11.7l9.6,0
				c-0.3-6.3-3-11.2-8.2-14.6c-4.1-2.8-9.3-4.4-15.6-5l0-6.7l-8.4,0l0,6.7c-6.4,0.4-11.6,2.1-15.7,5c-4.8,3.4-7.3,7.8-7.3,13.1
				c0,4.7,1.8,8.5,5.6,11.4c3.6,2.7,9.4,4.9,17.4,6.5l0,23.7c-3.4-0.5-6.4-1.6-9.1-3.1c-4.1-2.4-6.4-6-6.9-10.9l-9.5,0
				c0.3,6.5,3,11.9,8.2,16.1c4.1,3.3,9.9,5.3,17.3,6l0,6.8l8.4,0l0-6.5c7.3-0.3,13.2-2.1,17.9-5.5c5.1-3.7,7.7-8.4,7.7-14.1
				C90.9,70.3,89.5,66.8,86.7,64.1z M47.3,50.3c-2.4-1.4-3.6-3.5-3.6-6.2c0-3,1.5-5.4,4.5-7.3c2.2-1.4,5.2-2.2,8.8-2.5l0,19.2
				C52.4,52.5,49.2,51.4,47.3,50.3z M76.2,83.6c-2.9,1.7-6.5,2.7-10.9,2.9l0-22.4c4.7,1.1,8.3,2.2,10.7,3.4c3.5,1.7,5.2,4.3,5.2,7.9
				C81.2,78.9,79.5,81.6,76.2,83.6z"/>
		</g>
	</g>
</g>
</svg>
