<?xml version="1.0" encoding="utf-8"?>
<!-- Generator: Adobe Illustrator 28.3.0, SVG Export Plug-In . SVG Version: 6.00 Build 0)  -->
<svg version="1.1" id="Layer_1" xmlns="http://www.w3.org/2000/svg" xmlns:xlink="http://www.w3.org/1999/xlink" x="0px" y="0px"
	 viewBox="0 0 68 103.4" style="enable-background:new 0 0 68 103.4;" xml:space="preserve">
<style type="text/css">
	.st0{fill:#FFFFFF;}
	.st1{fill:none;stroke:#000000;stroke-width:4.6017;stroke-miterlimit:10;}
</style>
<g id="XMLID_00000080916324035964880460000006995324343555166867_">
	<g>
		<path class="st0" d="M65.7,98.8C65.7,98.8,65.7,98.8,65.7,98.8c0,2-2.8,2.2-5.4,2.3c-2.6,0.1-5.7-0.8-9.6-3.1
			c-0.2-0.1-0.5-0.2-0.7-0.3l-14.8-4.2l23.4-22.4l0,0l6.6,26.4L65.7,98.8z"/>
		<path class="st0" d="M57.1,65.1l1.6,6L35.3,93.5l-19-5.4C7.1,85.7,1.7,77.9,4.2,68.8l17.6,3.7c1.8,0.4,2.7-2.1,1.1-3l-12.1-7
			c-8.2-4.7-11-15.2-6.3-23.4l24.6,14.2c1.7,1,3.4-1.3,2-2.7L8,27.5C1.3,20.8,1.3,9.9,8,3.3l31.5,31.6C48,43.2,54,53.7,57.1,65.1z"
			/>
	</g>
	<g>
		<path class="st1" d="M58.7,71.1l-1.6-6C54,53.7,48,43.2,39.6,34.8L8,3.3C1.3,9.9,1.3,20.8,8,27.5l23.2,23.2c1.4,1.4-0.3,3.6-2,2.7
			L4.6,39.1c-4.7,8.2-1.9,18.6,6.3,23.4l12.1,7c1.6,0.9,0.7,3.4-1.1,3L4.2,68.8c-2.4,9.1,3,16.9,12.1,19.3l19,5.4"/>
		<polyline class="st1" points="65.7,98.8 65.3,97.5 58.7,71.1 58.7,71 		"/>
		<line class="st1" x1="65.8" y1="99.3" x2="65.7" y2="98.8"/>
		<path class="st1" d="M35.3,93.5L50,97.7c0.2,0.1,0.5,0.2,0.7,0.3c3.9,2.3,6.9,3.1,9.6,3.1c2.5-0.1,5.4-0.3,5.4-2.3c0,0,0,0,0,0
			c0-0.4-0.1-0.8-0.3-1.2"/>
	</g>
</g>
</svg>
