<?xml version="1.0" encoding="utf-8"?>
<!-- Generator: Adobe Illustrator 28.3.0, SVG Export Plug-In . SVG Version: 6.00 Build 0)  -->
<svg version="1.1" id="Layer_2_00000101803678646606725820000000227978255112563621_"
	 xmlns="http://www.w3.org/2000/svg" xmlns:xlink="http://www.w3.org/1999/xlink" x="0px" y="0px" viewBox="0 0 125.9 130.2"
	 style="enable-background:new 0 0 125.9 130.2;" xml:space="preserve">
<style type="text/css">
	.st0{fill:#EFE77F;stroke:#231F20;stroke-width:4.6;stroke-miterlimit:10;}
	.st1{fill:#F5EC43;stroke:#231F20;stroke-width:4.6;stroke-miterlimit:10;}
	.st2{fill:#231F20;}
	.st3{fill:#FFFFFF;}
</style>
<g id="Layer_11">
	<g>
		<g>
			<path class="st0" d="M20.1,114.7C-29.7,70.4,34.8-19.5,93.9,7.1c30.9,18.8,39.4,69.4,17.4,98C90.2,127.9,44.1,137.9,20.1,114.7
				L20.1,114.7z"/>
			<path class="st1" d="M41.4,23.7c-20.7-0.3-24.1,37.5-7.1,44.2C62.3,76.5,65.6,26.5,41.4,23.7z"/>
			<path class="st2" d="M41.4,23.7c24.2,2.8,20.9,52.8-7.1,44.2C17.4,61.2,20.7,23.4,41.4,23.7z M40.7,64.8
				c3.7-0.9,9.3-2.2,10.5-6.6C65.2,31.1,6,61.1,40.7,64.8z M41.8,40.3c18.9-0.2-0.3-20.3-7.4-8.9C35,35.3,37.3,40.2,41.8,40.3z"/>
			<path class="st3" d="M40.7,64.8C6,61,65.2,31.1,51.2,58.2C50,62.5,44.4,63.8,40.7,64.8z"/>
			<path class="st3" d="M41.8,40.3c-9.4-1.8-9.7-14.5,1.6-12.3C51.3,33,53.3,39.8,41.8,40.3z"/>
		</g>
		<path class="st2" d="M98.4,16.6C71.5,14,65.7,66.1,96.7,63.4c0.9-0.1,1.8-0.1,2.6-0.2c20.3-1.4,17.3-33.3,4.2-44.4
			C102.1,17.5,100.3,16.8,98.4,16.6L98.4,16.6z"/>
		<path class="st3" d="M92.4,60.1c-8.1,0-10.8-9.4-8.6-11.4c6.5-5.8,14.7-9.9,23.2-6.2c0,0,1.9,0.7,1.9,2.9
			C108.9,54,106.9,60.1,92.4,60.1L92.4,60.1z"/>
		<path class="st3" d="M99.5,20.8c9.8,5,3,9.5-3.3,9.5c-2.7,0-4.5-1.3-6.3-2.9c-2-1.8-1.4-5.3,1-6.2C93.8,20.2,97.6,20,99.5,20.8
			L99.5,20.8z"/>
		<path class="st2" d="M59.7,86.3c0.1-0.4,0.3-0.8,0.4-1.2c0-0.1,0.1-0.2,0.1-0.3c0,0,0.1-0.3,0-0.1s0-0.1,0-0.1
			c0.1-0.1,0.1-0.3,0.2-0.4c0.4-0.8,0.8-1.5,1.2-2.2c0.1-0.2,0.2-0.3,0.3-0.4c0.2-0.4-0.2,0.2,0.1-0.1c0.3-0.3,0.5-0.6,0.8-0.9
			c0.1-0.1,0.1-0.1,0.2-0.2c0.2-0.2-0.4,0.2-0.1,0.1c0.1-0.1,0.3-0.2,0.4-0.3c0.1,0,0.1-0.1,0.2-0.1c0.1-0.1,0.1-0.1,0,0
			c-0.1,0.2-0.1,0,0.1,0c0.1,0,0.2-0.1,0.3-0.1c0.1,0,0.6-0.1,0.2-0.1c-0.4,0.1,0.1,0,0.2,0s0.2,0,0.4,0c0.1,0,0.3,0-0.1,0
			c-0.4-0.1,0,0,0,0c0.2,0.1,0.4,0.1,0.7,0.2c0.1,0,0.2,0.1,0.2,0.1c0,0-0.5-0.2-0.3-0.1c0.1,0.1,0.3,0.1,0.4,0.2
			c0.2,0.1,0.5,0.3,0.7,0.4c0.1,0.1,0.2,0.2,0.4,0.3c0.1,0,0.1,0.1,0.2,0.1c0.2,0.2-0.4-0.3-0.1-0.1c0.5,0.4,1,0.8,1.4,1.2
			c1.9,1.7,3.7,3.8,6.1,4.8s4.9,1,7.1-0.4c3.1-2.1,4.8-5.7,6.2-9.1c0.4-1.1-0.5-2.6-1.6-2.8c-1.3-0.3-2.4,0.4-2.8,1.6
			c-0.1,0.2-0.2,0.4-0.3,0.7c0.1-0.3-0.1,0.3-0.2,0.4c-0.2,0.4-0.4,0.9-0.6,1.3c-0.4,0.7-0.8,1.4-1.2,2.1c-0.1,0.1-0.2,0.3-0.3,0.4
			c0,0.1-0.1,0.1-0.1,0.2c-0.1,0.2,0.1-0.2,0.1-0.2c-0.2,0.1-0.5,0.6-0.6,0.7c-0.2,0.2-0.4,0.4-0.6,0.5c-0.1,0.1-0.2,0.1-0.3,0.2
			c-0.2,0.2,0.4-0.3,0.2-0.2c-0.1,0-0.1,0.1-0.2,0.1c-0.2,0.1-0.4,0.2-0.5,0.3c-0.1,0-0.2,0.1-0.2,0.1c-0.4,0.2,0.4-0.1,0.1-0.1
			c-0.3,0.1-0.7,0.2-1,0.3c0,0,0.7,0,0.3-0.1c-0.1,0-0.1,0-0.2,0c-0.1,0-0.2,0-0.4,0c-0.1,0-0.1,0-0.2,0c-0.3,0,0-0.1,0.2,0
			c-0.1-0.1-0.3-0.1-0.4-0.1c-0.1,0-0.2-0.1-0.4-0.1c-0.1,0-0.1-0.1-0.2-0.1c-0.2-0.1,0.3,0.1,0.3,0.1c-0.2-0.1-0.5-0.3-0.8-0.4
			c-0.2-0.1-0.4-0.3-0.7-0.4c-0.1-0.1-0.2-0.2-0.4-0.3c-0.2-0.1,0.2,0.2,0.2,0.2c-0.1-0.1-0.1-0.1-0.2-0.2c-0.5-0.4-1-0.8-1.4-1.3
			c-0.9-0.9-1.8-1.8-2.8-2.6c-2.2-1.8-4.9-3.4-7.8-2.5c-4.1,1.2-6.1,5.8-7.4,9.5c-0.4,1.1,0.4,2.6,1.6,2.8
			C58.1,88.2,59.2,87.5,59.7,86.3L59.7,86.3L59.7,86.3z"/>
	</g>
</g>
</svg>
